<svg xmlns="http://www.w3.org/2000/svg" viewBox="0 0 1505.54 197.4"><defs><style>.cls-1,.cls-2,.cls-3{fill:#fff;}.cls-1,.cls-2{fill-rule:evenodd;}.cls-2{opacity:0.5;}</style></defs><g id="Laag_2" data-name="Laag 2"><g id="Layer_1" data-name="Layer 1"><path class="cls-1" d="M328.38,50.41a5.3,5.3,0,1,0-5.29,5.44A5.37,5.37,0,0,0,328.38,50.41Zm13.75,5c0,.26,0,.54,0,.8v0a14.65,14.65,0,0,1-.39,3.8,10.69,10.69,0,0,1-.4,1.38c-.09.28-.19.55-.3.82a.64.64,0,0,0,0,.07h0a24,24,0,0,1-5.16,7.51c-.24.25-.48.51-.75.77A22.32,22.32,0,0,1,330.85,74a20.07,20.07,0,0,1-8,2.7l-.13,0L316,78a1.78,1.78,0,0,0-1.35,1.19l-.48,1.44c-.2.6-.39,1.17-.58,1.7l-1,3-.84,2.47-.48,1.43c-4.07,12.18-8.12,24.74-12,36.88-4.31,13.38-8.78,27.21-13.26,40.56-2.65,7.87-6.66,17.55-14.27,22.63-8,5.34-14.13,7.5-21.92,7.71-6.72.17-13.78-.07-19.88-3a9.72,9.72,0,0,1-1-.51,10.41,10.41,0,0,1-1-.59,21.88,21.88,0,0,1-7.71-9.67,4.17,4.17,0,0,0,1.72-.39c2-.9,3.13-2.81,4-4.54l.36-.72c10.29-21.12,17.54-44,24.56-66,2.29-7.23,4.66-14.69,7.11-22l0-.1c.19-.6.39-1.2.6-1.81l.13-.38c3.38-10,6.42-18.23,9.56-25.87,3.48-8.49,6.92-14.77,10.83-19.74l.19-.24.32-.41a38,38,0,0,1,9.76-8.73c11.66-7.09,28.39-5.25,40.68,4.49a51.73,51.73,0,0,1,6,5.43A22.34,22.34,0,0,1,342.13,55.43ZM207.39,97.22l-4.85,18.25-16.47,53.35c-.25.62-.51,1.24-.76,1.87-1.94,4.77-3.95,9.71-7.34,13.31-7.56,8-19.36,9.63-27.94,9.56-21.26-.17-28.52-7.08-30.87-12.85a2.33,2.33,0,0,1-.11-.28,3,3,0,0,0,.72-.09,3.28,3.28,0,0,0,.62-.17,5.83,5.83,0,0,0,2.57-2.11,37.78,37.78,0,0,0,3.83-6.54l.2-.39c.92-1.82,1.84-3.79,2.81-6l.16-.37c1.66-3.83,3.3-8,5.32-13.4.65-1.77,1.3-3.53,1.93-5.3,2.81-7.73,5.64-15.92,8.67-25l.57-1.73.13-.41c.14-.44.29-.89.44-1.34l.34-1.07,10.8-36.1c1.74-6.47,3.34-12.11,4.89-17.25q1.37-4.53,2.74-9l1.67-5.52c.36-1.19.71-2.39,1.07-3.59,2.91-9.79,5.92-19.91,11.46-28.56a35.58,35.58,0,0,1,5.89-7.06A34.87,34.87,0,0,1,203.67.65,42.8,42.8,0,0,1,208.06.1c.48,0,1-.06,1.47-.07a35.56,35.56,0,0,1,10.85,1.26l.07,0,.19.05a34.25,34.25,0,0,1,13.94,7.83,31.58,31.58,0,0,1,4.13,4.56c.42.57.78,1.11,1.09,1.62h-.07l-.4,0a4.7,4.7,0,0,0-.51.12l-.26.07-.52.17-.47.19a6.94,6.94,0,0,0-.77.4c-3.69,2.23-5.74,6-7.41,9.1,0,.09-.09.17-.11.22-.3.58-.59,1.17-.88,1.76-.44.9-.9,1.91-1.42,3.08h0s0,.05,0,.07a184.17,184.17,0,0,0-7.57,21.53l-.29,1-.1.4q-2,7.49-4,14.95L208,95C207.78,95.76,207.58,96.49,207.39,97.22ZM97.48,128q-3,10.89-5.92,21.76c-2.64,9.71-5.71,19.78-10.32,27.69l0,.06h0c-.76,1.29-1.49,2.41-2.23,3.45-.27.38-.58.78-1,1.28l-.1.11a33.22,33.22,0,0,1-12.42,9,63.22,63.22,0,0,1-7.37,2.72c-10.74,3.27-20.17,3.61-31.9,3.09a98.43,98.43,0,0,1-26.2-5,47.94,47.94,0,0,0,8.89-4.09c7.87-4.62,14.73-12.51,19.86-22.83,11-22.16,17.68-46.95,24.16-70.93,2.66-9.83,5.41-20,8.39-29.73l4.58-14.91c.37-1.18.73-2.38,1.09-3.57,3-10.06,6.17-20.45,11.83-29.33a36.89,36.89,0,0,1,5.92-7.17c.19-.18.38-.36.62-.57a36.11,36.11,0,0,1,21.74-9c.48,0,1-.06,1.47-.07A34.1,34.1,0,0,1,119.63,1.4a33.26,33.26,0,0,1,13.83,8,28.64,28.64,0,0,1,5,6.17,6.86,6.86,0,0,0-2.15.61,8.1,8.1,0,0,0-.78.39,13.78,13.78,0,0,0-1.51,1.12l-.42.35-.76.64a1.64,1.64,0,0,0-.28.31l-1.81,2.54a43.43,43.43,0,0,0-2.3,3.75c-.65,1.17-1.29,2.41-1.88,3.66a129.78,129.78,0,0,0-6.27,15.89l-.09.26,0,.11c0,.15-.09.3-.15.47-.14.43-.27.84-.36,1.16a4.88,4.88,0,0,0-.2.65c-.12.35-.22.68-.31,1l-.13.42c-.06.19-.12.38-.17.57-.16.51-.24.79-.25.81l-.08.3c-.78,2.6-1.21,4.24-1.23,4.3l-.53,2q-1.51,5.6-3,11.19t-3,11.19L106,96.67l-.72,2.64-.11.42c-.6,2.17-1.18,4.34-1.77,6.51Z"/><path class="cls-2" d="M215.18,153.72c-.07-.39-.13-.77-.19-1.2s-.17-1.08-.26-1.62l0-.32q-.15-.89-.27-1.77l0-.25c-.11-.63-.2-1.26-.3-1.89l0-.13c-.06-.34-.11-.68-.16-1s-.1-.71-.16-1.05l-.18-1.17-.15-.92c0-.3-.09-.59-.14-.89s-.13-.82-.19-1.28l-.21-1.32-.13-.82c-.05-.35-.11-.69-.16-1s-.11-.76-.17-1.12l-.34-2.2c-.12-.73-.23-1.47-.35-2.16-.05-.37-.1-.74-.16-1.1s-.11-.74-.17-1.15l-.47-3c-.08-.47-.15-.94-.23-1.45-.05-.35-.11-.7-.16-1s-.12-.77-.18-1.14l-.34-2.19c-.11-.74-.23-1.47-.34-2.17l-.33-2.2c-.12-.71-.23-1.42-.34-2.15-.06-.37-.12-.73-.17-1.1l-.16-1c-.1-.59-.19-1.19-.28-1.78l0-.31c-.11-.68-.23-1.39-.34-2.06v0l2.92-11c.19-.73.39-1.46.58-2.19l7.05-26.5c1.33-5,2.65-10,4-15,0-.09,0-.18.08-.29a183.48,183.48,0,0,1,7.7-22.12l0-.09,0,0c.15-.34.29-.66.44-1l.18-.4c.13-.29.27-.57.4-.85s.15-.33.23-.49.09-.19.14-.28l.32-.65c.15-.31.31-.61.46-.91l.07-.13c1.52-2.81,3.24-6,6.09-7.72a2.61,2.61,0,0,1,.41-.2,3.24,3.24,0,0,1,.31-.13l.2-.07.13,0,.09,0,.2,0,.16,0,.23,0a2.32,2.32,0,0,1,.47,0,.38.38,0,0,1,.15.05l.13.09.11.11c.07.08.15.17.23.28l0,0,1.13,5.55,11.77,62.94.15.73c-.26.77-.51,1.54-.77,2.31l-1,3-.9,2.8-.87,2.67c-.23.71-.45,1.42-.68,2.13L247.63,109c-7,22-14.19,44.66-24.36,65.53-.7,1.43-1.49,3.06-2.62,3.57-.19.09-.6.27-1.3-.7l-.16-.23,0,0-.06-.11-.08-.13-.07-.14a1.82,1.82,0,0,1-.1-.19v0l-.63-3.23-.05-.33c0-.22-.07-.45-.1-.62l-.07-.43c0-.22-.06-.42-.09-.59l-.09-.6c0-.18-.06-.37-.09-.58l-.2-1.29c-.07-.41-.13-.82-.19-1.25l-.06-.35c-.05-.35-.11-.71-.16-1-.07-.51-.15-1-.23-1.5l-.24-1.55c-.09-.55-.17-1.09-.26-1.59s-.17-1.17-.26-1.7-.18-1.18-.27-1.75l0-.29c-.08-.52-.16-1-.24-1.5Zm-101.44-5.17c-.11-.64-.2-1.28-.3-2l-.32-2c-.07-.46-.14-.92-.22-1.38l-.09-.63c-.06-.39-.12-.78-.19-1.18l-1.79-11.5c-.09-.64-.19-1.28-.29-1.93l-1.39-8.88c-.1-.68-.2-1.35-.31-2l-.68-4.35c-.1-.7-.21-1.41-.32-2.09l-.32-2.07-.15-.93s0,0,0,0l-.16-1c-.06-.37-.11-.75-.17-1.12q.82-3.06,1.66-6.12l.12-.43c.23-.87.47-1.75.71-2.63l4.75-17.5q1.53-5.59,3-11.19t3-11.19l.53-2s.25-.94.69-2.49c.15-.51.32-1.1.52-1.74l.08-.31s.09-.28.24-.77l0-.09c0-.13.07-.26.12-.41l.13-.45c.1-.3.2-.63.32-1l0-.1a4.93,4.93,0,0,1,.15-.5c.11-.36.24-.75.36-1.13.07-.22.15-.45.2-.64a.88.88,0,0,0,0-.15,127.65,127.65,0,0,1,6.1-15.5c.57-1.19,1.17-2.36,1.79-3.47.72-1.29,1.43-2.46,2.09-3.43l1.67-2.33.51-.43.44-.36a10.7,10.7,0,0,1,1.09-.82l.4-.2a3.07,3.07,0,0,1,1.8-.31.35.35,0,0,1,.16.07,1.93,1.93,0,0,1,.54.6l0,.06.05.09,0,.11a.08.08,0,0,1,0,0l.12.26a9.39,9.39,0,0,1,.39,1.48l0,.14a1.13,1.13,0,0,0,0,.2l.73,3.88c.07.37.14.75.22,1.11l11.22,57.45L144.13,114l-.33,1c-.15.47-.31.94-.44,1.39l-.13.38c-.18.56-.36,1.13-.55,1.69-3,9.1-5.85,17.26-8.65,25q-.94,2.64-1.92,5.28c-2,5.37-3.61,9.45-5.23,13.19l-.16.35c-1,2.17-1.85,4.09-2.73,5.85l-.21.4a35,35,0,0,1-3.44,5.92,3.29,3.29,0,0,1-1,1l-.13,0a.7.7,0,0,1-.4,0h0a1,1,0,0,1-.25-.16h0l-.14-.14-.08-.1a3.3,3.3,0,0,1-.34-.49l-.07-.11a1.86,1.86,0,0,1-.1-.2l0-.11-.06-.13-.06-.17a1.06,1.06,0,0,0,0-.14c0-.19,0-.39-.09-.64a3.4,3.4,0,0,1-.07-.46s0-.09,0-.13c0-.22-.08-.45-.11-.65s0-.38-.08-.57l-.42-2.65c0-.24-.08-.47-.11-.75l-.28-1.78c0-.25-.08-.49-.11-.69-.07-.47-.14-.94-.22-1.38l-.76-4.9c-.07-.45-.14-.9-.21-1.31-.08-.58-.17-1.16-.26-1.71s-.14-1-.22-1.44l-.06-.37-.15-1-.13-.81c-.09-.58-.18-1.16-.27-1.76Z"/><path class="cls-3" d="M997.79,11.06c0-5.89,2.43-9.36,6.59-9.36h4.85c4.17,0,6.59,3.47,6.59,9.36V185.49c0,5.9-2.42,9.37-6.59,9.37h-4.85c-4.16,0-6.59-3.47-6.59-9.37Z"/><path class="cls-3" d="M943.69,54.76a70.05,70.05,0,1,0,70,70.05A70.08,70.08,0,0,0,943.69,54.76Zm0,121A51.32,51.32,0,1,1,995,124.46,51.32,51.32,0,0,1,943.69,175.78Z"/><path class="cls-3" d="M498.83,192.57H494a6.59,6.59,0,0,1-6.59-6.58V62.18A6.59,6.59,0,0,1,494,55.6h4.85a6.59,6.59,0,0,1,6.59,6.58V73.63c8.33-13.53,22.89-21.16,44.05-21.16,22.19,0,39.18,9.37,46.12,28.44,10.56-18.31,27.56-28.9,49.9-28.43,27.81.59,49.62,24.27,49.62,52.09V186a6.59,6.59,0,0,1-6.59,6.58h-4.85a6.59,6.59,0,0,1-6.59-6.58V106.57c0-21.15-13.87-38.14-35.37-38.14-9.36,0-17.51,3.9-24.45,10-11.27,9.86-17.17,24.52-17.17,39.49V186a6.59,6.59,0,0,1-6.58,6.58h-4.86a6.59,6.59,0,0,1-6.59-6.58V106.57c0-21.15-13.87-38.14-35.37-38.14-9.54,0-17.69,3.9-24.58,9.88-11.17,9.7-17,24.17-17,39v68.36C505.42,190.15,503,192.57,498.83,192.57Z"/><path class="cls-3" d="M789.09,180.09a59.14,59.14,0,0,0,41.27-17c3.12-3.12,6.24-3.12,9.36-.35l2.78,2.43c3.12,2.77,3.46,6.24.34,9.36-13.52,13.18-32.25,20.81-53.06,20.81-43.34,0-72.82-32.25-72.82-71.79s30.17-71.78,71.09-71.78c40.23,0,68.66,30.52,68.66,68.32v2.77c-.34,4.16-2.77,6.24-6.93,6.24H735.69C736.73,157.2,758.57,180.09,789.09,180.09ZM735.34,114.2H837.29c-2.77-26.7-22.88-46.12-49.59-46.12C761,67.73,739.15,88.54,735.34,114.2Z"/><path class="cls-3" d="M1097.73,192.57h-7.29a7.49,7.49,0,0,1-7.62-5.2L1033.23,63.22c-1.74-4.5.34-7.62,5.2-7.62h5.2a7.51,7.51,0,0,1,7.63,5.2l43,108.19,43-108.19a7.5,7.5,0,0,1,7.63-5.2h5.2c4.86,0,6.94,3.12,5.2,7.62L1105.7,187.37C1104,190.84,1101.19,192.57,1097.73,192.57Z"/><path class="cls-3" d="M1186.16,3.23A12.59,12.59,0,0,1,1199,16.06a12.83,12.83,0,1,1-25.66,0A12.58,12.58,0,0,1,1186.16,3.23Zm-9,59c0-4.16,2.43-6.58,6.59-6.58h4.85c4.17,0,6.59,2.42,6.59,6.58V186c0,4.16-2.42,6.58-6.59,6.58h-4.85c-4.16,0-6.59-2.42-6.59-6.58Z"/><path class="cls-3" d="M1227.08,123.91c0-39.18,30.86-71.78,72.82-71.78a74.33,74.33,0,0,1,44.74,14.56c3.12,2.43,3.46,5.9,1.38,9.37l-2.08,3.12c-2.43,3.81-5.55,4.16-9,1.38a55.45,55.45,0,0,0-34.68-12.13c-30.87,0-54.45,25.31-54.45,55.48s23.58,55.49,54.45,55.49a55.17,55.17,0,0,0,36.06-13.53c3.47-2.77,6.59-2.77,9.37.7l2.42,2.77c2.78,3.12,2.78,6.59-.34,9a72.83,72.83,0,0,1-47.86,17.34C1257.94,195.7,1227.08,163.1,1227.08,123.91Z"/><path class="cls-3" d="M1437.92,180.09a59.16,59.16,0,0,0,41.27-17c3.12-3.12,6.24-3.12,9.36-.35l2.77,2.43c3.13,2.77,3.47,6.24.35,9.36-13.52,13.18-32.25,20.81-53.06,20.81-43.34,0-72.82-32.25-72.82-71.79s30.17-71.78,71.09-71.78c40.23,0,68.66,30.52,68.66,68.32v2.77c-.34,4.16-2.77,6.24-6.93,6.24h-114.1C1385.56,157.2,1407.75,180.09,1437.92,180.09Zm-53.41-65.89h102c-2.78-26.7-22.89-46.12-49.59-46.12C1409.83,67.73,1388.33,88.54,1384.51,114.2Z"/></g></g></svg>
