<svg style="fill: rgb(255, 255, 255); width: 72px; height: 59px; --darkreader-inline-fill: #738ec3;" xmlns="http://www.w3.org/2000/svg" width="265.81" height="215.23" viewBox="0 0 265.81 215.23" data-darkreader-inline-fill=""><path d="M265.81 58.54H0V0h265.81zM6.33 52.21h253.15V6.33H6.33z"></path><path d="M19.23 12h1.58v34.02h-1.58zM74.52 67.52H85l-12.48 45.82H62L52.23 83l-9.83 30.34H31.67L19.2 67.52h10.86l7.56 29.34 9.5-29.34h10.47l9.5 29.4zM119.11 113.34V95.11h-18.29v18.23H90.61V67.52h10.21v18h18.29v-18h10.28v45.82zM139.27 113.34V67.52h29v9.63h-18.79v8.72h17.06v9h-17.06v8.79h18.87v9.7zM190.77 96.28h-3.62v17.06h-10.21V67.52h18.16c9.05 0 14.87 6.2 14.87 14.34a13.15 13.15 0 0 1-9.05 12.93l9.31 18.55H199zm2.39-8.79c4.21 0 6.47-2.33 6.47-5.56 0-3.43-2.26-5.56-6.47-5.56h-6v11.12zM217.52 113.34V67.52h29v9.63h-18.8v8.72h17.08v9h-17.06v8.79h18.87v9.7zM66 118h12l9.37 17 9.5-17h11.38L92.1 144.67v19.13H81.88v-19.13zM131.77 117c12.87 0 23.79 9.38 23.79 23.92s-10.92 23.85-23.79 23.85-23.84-9.37-23.84-23.85S118.85 117 131.77 117zm0 37.68c6.34 0 13.19-4.26 13.19-13.83S138.11 127 131.77 127s-13.24 4.33-13.24 13.89 6.85 13.79 13.24 13.79zM162.47 147.25V118h10.21v28.44c0 5.56 3.1 8.34 7.95 8.34s8-2.78 8-8.34V118h10.21v29.28c0 11.51-8.08 17.58-18.16 17.58s-18.21-6.1-18.21-17.61zM54.74 214.26v-45.83H65v36.07h19.73v9.76zM111.42 167.46c12.86 0 23.78 9.37 23.78 23.92s-10.92 23.85-23.78 23.85-23.85-9.38-23.85-23.85 10.92-23.92 23.85-23.92zm0 37.68c6.33 0 13.18-4.26 13.18-13.83s-6.85-13.89-13.18-13.89-13.25 4.33-13.25 13.89 6.83 13.83 13.25 13.83zM169.77 168.43h10.86l-16.74 45.83h-10.53l-16.81-45.83h11.25l11 32.25zM186.25 214.26v-45.83h29v9.63h-18.79v8.73h17.06v9h-17.06v8.79h18.87v9.7z"></path></svg>
